<?xml version="1.0" standalone="no"?>
<!DOCTYPE svg PUBLIC "-//W3C//DTD SVG 20010904//EN"
 "http://www.w3.org/TR/2001/REC-SVG-20010904/DTD/svg10.dtd">
<svg version="1.0" xmlns="http://www.w3.org/2000/svg"
 width="168.000000pt" height="133.000000pt" viewBox="0 0 168.000000 133.000000"
 preserveAspectRatio="xMidYMid meet">

<g transform="translate(0.000000,133.000000) scale(0.100000,-0.100000)"
fill="#000000" stroke="none">
<path d="M840 1311 c-5 -11 -10 -27 -10 -35 0 -9 -4 -16 -10 -16 -5 0 -10 -9
-10 -20 0 -11 -4 -20 -10 -20 -5 0 -10 -9 -10 -20 0 -12 -7 -20 -16 -20 -12 0
-15 -7 -12 -25 4 -17 1 -25 -8 -25 -8 0 -14 -7 -14 -15 0 -8 5 -15 10 -15 6 0
10 -7 10 -15 0 -8 -4 -15 -10 -15 -15 0 -12 -47 3 -53 10 -4 10 -6 0 -6 -8 -1
-13 -16 -13 -41 0 -22 -4 -40 -10 -40 -5 0 -10 -9 -10 -21 0 -16 4 -19 20 -14
15 5 20 2 20 -13 0 -14 8 -21 28 -24 25 -4 28 -1 24 19 -2 13 -8 23 -13 23 -5
0 -9 5 -9 11 0 6 6 9 14 6 8 -3 17 -3 20 0 7 7 -19 33 -33 33 -6 0 -11 7 -11
16 0 13 6 15 28 9 l27 -7 -28 30 c-20 21 -25 32 -17 37 7 4 16 1 21 -6 4 -7
11 -10 15 -6 4 4 -3 15 -14 26 -26 22 -32 62 -7 41 9 -7 19 -10 23 -6 4 4 -1
12 -11 17 -22 13 -22 23 0 45 13 13 14 19 5 22 -14 4 -16 26 -3 50 5 9 16 32
23 50 19 46 30 39 26 -16 -3 -43 -1 -48 15 -44 11 3 17 -1 17 -12 0 -9 -4 -16
-10 -16 -5 0 -10 -7 -10 -15 0 -8 4 -15 9 -15 17 0 20 -29 6 -44 -8 -8 -15
-17 -15 -20 0 -12 28 -6 33 7 3 6 6 3 6 -8 1 -11 -8 -27 -19 -35 -24 -17 -26
-30 -5 -30 8 0 15 5 15 11 0 5 5 7 11 3 7 -4 2 -15 -15 -29 -25 -22 -34 -45
-18 -45 4 0 13 5 20 12 9 9 12 8 12 -4 0 -9 -9 -19 -19 -23 -10 -3 -21 -14
-24 -25 -4 -16 -2 -17 19 -10 15 6 24 6 24 0 0 -6 -4 -10 -9 -10 -5 0 -11 -10
-13 -23 -4 -20 -1 -23 24 -19 20 3 28 10 28 24 0 15 5 18 20 13 15 -5 20 -2
20 13 0 11 -5 22 -10 24 -6 2 -11 34 -11 71 -1 51 -4 67 -15 67 -8 0 -14 7
-14 15 0 8 7 15 15 15 8 0 15 7 15 15 0 8 -7 15 -15 15 -10 0 -15 10 -15 30 0
17 -5 30 -11 30 -5 0 -7 5 -4 10 3 6 0 13 -9 16 -8 3 -17 23 -21 45 -4 21 -11
39 -16 39 -5 0 -9 7 -9 15 0 21 -17 19 -30 -4z"/>
<path d="M463 1085 c-15 -17 -17 -45 -3 -45 6 0 10 -7 10 -15 0 -23 60 -127
86 -150 13 -11 24 -26 24 -33 0 -7 7 -12 15 -12 8 0 15 -7 15 -15 0 -11 -12
-15 -50 -15 -27 0 -50 -4 -50 -10 0 -5 -7 -10 -16 -10 -18 0 -44 -23 -44 -39
0 -6 5 -11 10 -11 6 0 10 -7 10 -15 0 -8 9 -15 20 -15 11 0 20 -4 20 -10 0 -5
7 -10 15 -10 8 0 15 -4 15 -10 0 -5 18 -10 40 -10 38 0 54 -13 28 -23 -10 -4
-10 -7 0 -18 10 -11 12 -10 12 4 0 13 9 17 35 17 24 0 35 5 35 15 0 9 9 15 25
15 14 0 25 5 25 10 0 6 -7 10 -15 10 -8 0 -15 5 -15 10 0 6 -7 10 -15 10 -8 0
-15 -5 -15 -11 0 -8 -4 -8 -12 -1 -7 5 -22 12 -33 15 -12 3 -4 6 20 7 39 2 38
3 -14 10 -30 5 -65 4 -78 -1 -13 -5 -23 -5 -23 0 0 5 -6 9 -12 8 -35 -1 -58 4
-58 13 0 14 38 12 42 -2 3 -9 6 -9 12 0 4 7 2 12 -3 12 -6 0 -11 5 -11 10 0
15 47 12 53 -2 4 -10 6 -10 6 0 1 6 7 12 15 12 8 0 17 -6 19 -12 4 -10 6 -10
6 0 1 6 7 12 15 12 8 0 17 -6 20 -12 5 -10 7 -10 12 0 7 14 34 16 34 2 0 -5 5
-10 10 -10 6 0 10 11 10 24 0 14 -4 28 -10 31 -15 9 -12 25 5 25 11 0 15 -12
15 -45 l0 -45 38 0 c72 0 84 8 80 51 -2 22 0 40 4 41 5 2 -31 2 -79 1 -49 0
-96 1 -105 4 -21 5 -24 29 -5 37 6 3 1 3 -13 0 -29 -6 -73 28 -85 64 -3 12
-11 22 -16 22 -6 0 -9 8 -7 18 2 9 -5 24 -16 33 -11 9 -16 21 -12 27 10 17 36
15 36 -3 0 -8 7 -15 16 -15 9 0 14 -6 11 -13 -4 -10 3 -12 24 -9 17 3 29 0 29
-7 0 -6 7 -11 15 -11 16 0 56 -35 53 -47 -1 -5 6 -9 15 -11 9 -2 17 1 17 7 0
14 -37 51 -50 51 -5 0 -10 7 -10 15 0 8 -9 15 -20 15 -11 0 -20 5 -20 10 0 6
-11 10 -25 10 -14 0 -25 4 -25 8 0 5 -16 14 -35 22 -19 8 -35 17 -35 22 0 13
-24 9 -37 -7z m37 -15 c0 -5 -7 -10 -15 -10 -8 0 -15 5 -15 10 0 6 7 10 15 10
8 0 15 -4 15 -10z m105 -350 c-3 -5 -12 -10 -18 -10 -7 0 -6 4 3 10 19 12 23
12 15 0z"/>
<path d="M1220 1090 c0 -5 5 -10 10 -10 6 0 10 -4 10 -10 0 -14 -27 -13 -32 2
-3 8 -12 8 -36 -3 -34 -15 -39 -23 -21 -35 7 -4 16 1 21 10 12 22 38 20 38 -3
0 -22 -23 -44 -35 -33 -4 4 -5 -3 -2 -15 3 -13 1 -23 -4 -23 -5 0 -9 -7 -9
-15 0 -8 -4 -15 -10 -15 -5 0 -9 -3 -7 -8 2 -8 -40 -57 -51 -57 -4 0 -23 -16
-43 -35 -37 -35 -60 -93 -32 -83 7 3 13 9 13 14 0 14 28 11 33 -3 4 -10 6 -10
6 0 1 6 7 12 15 12 8 0 17 -6 19 -12 4 -10 6 -10 6 0 1 6 7 12 15 12 8 0 17
-6 19 -12 4 -10 6 -10 6 0 1 6 12 12 26 12 26 0 34 -15 13 -23 -8 -2 -9 -8 -4
-13 5 -5 11 -4 13 4 5 14 43 16 43 2 0 -11 1 -11 -119 -16 -80 -3 -128 -14
-63 -14 18 0 32 -4 32 -9 0 -5 -9 -7 -20 -4 -12 3 -20 0 -20 -7 0 -10 -3 -10
-14 -1 -15 13 -42 3 -74 -26 -7 -7 -24 -16 -38 -19 -13 -3 -24 -10 -24 -15 0
-5 -7 -9 -15 -9 -8 0 -15 -4 -15 -10 0 -5 -9 -10 -21 -10 -11 0 -17 5 -14 10
3 6 0 10 -9 10 -8 0 -16 4 -18 9 -5 14 -48 24 -48 11 0 -6 5 -8 10 -5 6 3 10
1 10 -6 0 -8 -11 -10 -35 -6 -21 3 -33 2 -30 -3 3 -6 0 -7 -7 -5 -8 3 -23 -4
-35 -15 -27 -25 -61 -26 -79 -3 -13 17 -13 17 -14 1 0 -10 -7 -18 -15 -18 -21
0 -19 -20 3 -20 9 -1 -4 -10 -30 -21 -45 -20 -46 -22 -35 -47 6 -15 17 -34 25
-42 10 -11 10 -6 -2 24 -19 45 -11 56 39 55 39 0 127 -31 133 -47 4 -14 -24
-17 -32 -3 -3 5 -15 11 -26 14 -17 4 -19 3 -9 -9 6 -8 19 -14 27 -14 11 0 13
-3 6 -10 -6 -6 -21 -6 -42 -1 -17 5 -34 6 -37 1 -3 -5 -1 -10 4 -12 5 -1 3
-14 -5 -28 -10 -16 -13 -18 -9 -6 6 19 5 19 -14 2 -19 -17 -21 -17 -27 -2 -5
13 -9 14 -21 5 -31 -26 -35 -48 -17 -94 15 -41 20 -45 60 -51 35 -5 44 -10 44
-26 0 -30 45 -68 80 -68 20 0 30 -5 30 -15 0 -8 -4 -15 -10 -15 -5 0 -10 -9
-10 -20 0 -13 -7 -20 -20 -20 -31 0 -70 -44 -70 -80 l0 -30 260 0 260 0 0 35
c0 22 -5 35 -13 35 -7 0 -19 9 -27 20 -8 11 -22 20 -32 20 -11 0 -18 7 -18 20
0 11 -4 20 -10 20 -5 0 -10 7 -10 15 0 9 9 15 23 15 13 0 33 9 45 20 12 11 26
20 32 20 16 0 12 56 -7 94 -11 22 -24 34 -33 31 -8 -2 -25 -6 -37 -10 -20 -5
-23 -3 -21 19 3 30 4 31 24 11 24 -23 34 -18 34 18 0 17 3 42 6 55 4 13 2 22
-5 22 -6 0 -11 -6 -11 -13 0 -7 -16 -26 -35 -41 -21 -17 -35 -37 -35 -50 0
-33 -6 -35 -63 -19 -29 8 -63 14 -75 14 -13 -1 -33 6 -44 14 -14 9 -27 11 -38
5 -13 -7 -24 -4 -41 11 -13 11 -31 18 -40 16 -12 -3 -15 1 -11 16 3 14 1 18
-6 13 -7 -4 -12 -3 -12 3 0 6 13 17 28 25 24 12 28 20 24 45 -3 24 0 31 12 31
9 0 16 5 16 12 0 6 3 8 7 5 3 -4 15 0 25 10 17 15 18 15 18 -10 0 -15 5 -27
11 -27 5 0 7 -4 4 -10 -7 -11 8 -11 45 -1 24 7 24 7 -7 14 -20 4 -33 13 -33
22 0 8 5 15 11 15 5 0 7 -4 4 -10 -4 -6 7 -10 24 -10 17 0 31 5 31 10 0 6 5
10 10 10 6 0 10 -9 10 -20 0 -11 7 -20 15 -20 8 0 15 8 15 19 0 18 2 18 34 2
19 -9 37 -24 40 -35 2 -10 9 -15 15 -11 7 3 11 -2 11 -14 0 -23 15 -28 26 -10
4 7 -1 16 -10 21 -9 5 -16 16 -16 23 0 8 -7 15 -15 15 -8 0 -15 7 -15 15 0 10
10 15 30 15 20 0 30 -5 30 -15 0 -11 11 -15 40 -15 28 0 40 4 40 14 0 8 6 16
12 18 9 3 8 9 -5 22 -10 10 -22 14 -29 9 -17 -10 -58 -11 -58 -1 0 4 -7 8 -15
8 -8 0 -15 5 -15 11 0 6 -9 8 -21 4 -12 -4 -19 -3 -16 2 3 5 -10 7 -29 5 -22
-3 -34 0 -34 8 0 7 8 10 20 7 13 -3 20 0 20 9 0 8 10 14 25 14 16 0 25 -6 25
-15 0 -10 11 -15 35 -15 24 0 35 -5 35 -15 0 -8 5 -15 10 -15 6 0 10 7 10 15
0 8 -4 15 -10 15 -5 0 -10 5 -10 10 0 6 18 10 40 10 22 0 40 5 40 10 0 6 7 10
15 10 8 0 15 5 15 10 0 6 9 10 20 10 11 0 20 6 20 14 0 8 7 16 16 18 14 3 13
6 -4 26 -11 12 -27 22 -36 22 -9 0 -16 5 -16 10 0 6 -20 10 -45 10 -33 0 -45
4 -45 15 0 8 7 15 16 15 10 0 14 5 10 15 -3 10 1 18 12 22 22 9 42 29 42 42 0
6 5 11 10 11 6 0 10 11 10 25 0 14 4 25 9 25 5 0 12 13 16 30 4 16 11 32 16
35 14 9 11 34 -5 51 -17 16 -26 18 -26 4z m-80 -370 c0 -5 -5 -10 -11 -10 -5
0 -7 5 -4 10 3 6 8 10 11 10 2 0 4 -4 4 -10z m-430 -165 c0 -8 -3 -15 -7 -16
-5 0 -16 -2 -25 -4 -12 -2 -18 3 -18 16 0 14 7 19 25 19 16 0 25 -6 25 -15z
m337 -167 c-3 -8 -6 -5 -6 6 -1 11 2 17 5 13 3 -3 4 -12 1 -19z m-507 -8 c0
-5 6 -7 13 -4 7 2 21 -2 31 -9 15 -11 17 -18 8 -33 -6 -10 -12 -13 -12 -6 0 6
-5 12 -12 12 -6 0 -3 -9 7 -20 22 -25 16 -33 -18 -25 -28 7 -58 35 -38 35 6 0
9 13 7 30 -2 17 1 30 5 30 5 0 9 -4 9 -10z m165 -40 c28 -6 42 -6 48 3 6 8 7
6 3 -5 -4 -15 1 -18 34 -18 22 0 40 -4 40 -10 0 -11 -25 -9 -117 10 -35 7 -63
17 -63 21 0 11 5 11 55 -1z m-1 -36 c20 -8 21 -60 2 -80 -40 -40 -102 14 -80
70 6 16 48 21 78 10z m192 -3 c16 -15 101 -31 136 -26 26 4 28 3 8 -3 -25 -8
-25 -8 -2 -14 12 -3 22 -11 22 -17 0 -5 -39 4 -87 21 -49 16 -98 30 -110 30
-13 0 -23 4 -23 9 0 12 43 12 56 0z m111 -7 c-3 -3 -12 -4 -19 -1 -8 3 -5 6 6
6 11 1 17 -2 13 -5z m-167 -20 c0 -2 -7 -4 -15 -4 -8 0 -15 4 -15 10 0 5 7 7
15 4 8 -4 15 -8 15 -10z m42 -139 c-4 -80 -6 -85 -33 -85 -17 0 -19 7 -19 81
l0 80 28 -3 c27 -3 27 -3 24 -73z m-72 5 c0 -17 -7 -20 -50 -20 -43 0 -50 3
-50 20 0 17 7 20 50 20 43 0 50 -3 50 -20z m190 0 c0 -17 -7 -20 -50 -20 -43
0 -50 3 -50 20 0 17 7 20 50 20 43 0 50 -3 50 -20z m-306 -46 c9 -3 16 -17 16
-30 0 -24 2 -24 50 -18 31 4 50 3 50 -3 0 -12 -70 -23 -141 -23 -46 0 -49 2
-49 25 0 44 32 65 74 49z m56 -4 c0 -5 -7 -10 -15 -10 -8 0 -15 5 -15 10 0 6
7 10 15 10 8 0 15 -4 15 -10z m240 -11 c0 -18 -2 -19 -15 -5 -8 8 -15 17 -15
20 0 3 7 6 15 6 9 0 15 -9 15 -21z m86 7 c8 -8 14 -26 14 -40 0 -24 -3 -26
-49 -26 -71 0 -141 11 -141 23 0 6 19 7 50 3 48 -6 50 -6 50 18 0 35 48 49 76
22z"/>
<path d="M660 260 c0 -5 7 -10 15 -10 8 0 15 5 15 10 0 6 -7 10 -15 10 -8 0
-15 -4 -15 -10z"/>
<path d="M1100 1026 c0 -7 11 -16 24 -18 19 -4 22 -1 18 14 -5 21 -42 25 -42
4z"/>
<path d="M1060 1005 c0 -8 -7 -15 -15 -15 -17 0 -20 -16 -5 -25 6 -3 13 1 16
9 3 9 12 16 20 16 8 0 14 7 14 15 0 8 -7 15 -15 15 -8 0 -15 -7 -15 -15z"/>
<path d="M1002 958 c-18 -18 -15 -28 8 -28 13 0 20 7 20 20 0 23 -10 26 -28 8z"/>
<path d="M578 953 c7 -3 16 -2 19 1 4 3 -2 6 -13 5 -11 0 -14 -3 -6 -6z"/>
<path d="M1128 953 c7 -3 16 -2 19 1 4 3 -2 6 -13 5 -11 0 -14 -3 -6 -6z"/>
<path d="M668 863 c7 -3 16 -2 19 1 4 3 -2 6 -13 5 -11 0 -14 -3 -6 -6z"/>
<path d="M879 798 l-4 -44 58 -2 c52 -3 57 -1 58 17 4 71 8 66 -53 69 l-56 3
-3 -43z"/>
<path d="M717 729 c6 -22 23 -26 23 -5 0 8 -6 16 -14 19 -10 4 -12 0 -9 -14z"/>
<path d="M765 730 c-12 -19 54 -70 90 -70 33 0 95 45 95 69 0 14 -176 15 -185
1z m135 -30 c0 -5 -20 -10 -45 -10 -25 0 -45 5 -45 10 0 6 20 10 45 10 25 0
45 -4 45 -10z"/>
<path d="M970 724 c0 -8 5 -12 10 -9 6 3 10 10 10 16 0 5 -4 9 -10 9 -5 0 -10
-7 -10 -16z"/>
<path d="M880 526 c0 -9 5 -16 10 -16 6 0 10 4 10 9 0 6 -4 13 -10 16 -5 3
-10 -1 -10 -9z"/>
<path d="M843 493 c9 -2 23 -2 30 0 6 3 -1 5 -18 5 -16 0 -22 -2 -12 -5z"/>
</g>
</svg>
